<?xml version="1.0" encoding="UTF-8"?>
<!-- HYFI wordmark (emblem + text) – transparent background -->
<svg xmlns="http://www.w3.org/2000/svg" width="auto" height="32" viewBox="0 0 900 200" role="img" aria-label="HYFI logo">
  <defs>
    <linearGradient id="hyfiDrop" x1="0" y1="0" x2="0" y2="1">
      <stop offset="0%"  stop-color="#00C2FF"/>
      <stop offset="100%" stop-color="#0C6DFF"/>
    </linearGradient>
    <style>
      .ink{ fill:#0C3D8F; }
      .txt{ font: 800 120px/1 Inter, system-ui, -apple-system, "Segoe UI", Roboto, Helvetica, Arial, sans-serif; letter-spacing:4px; }
    </style>
  </defs>

  <!-- Emblem -->
  <g transform="translate(30,20)">
    <circle cx="220" cy="100" r="90" fill="none" stroke="#0C3D8F" stroke-width="12"/>
    <g class="ink">
      <rect x="180" y="45" width="18" height="110" rx="4"/>
      <rect x="242" y="45" width="18" height="110" rx="4"/>
      <rect x="198" y="90" width="44" height="20" rx="4"/>
    </g>
    <g transform="translate(125,22) scale(0.55)">
      <path d="M84,0 C70,28 44,58 28,86 C11,115 6,141 18,167 C29,192 54,210 84,210
               C114,210 139,192 150,167 C162,141 157,115 140,86 C123,58 98,28 84,0 Z"
            fill="url(#hyfiDrop)"/>
      <path d="M70,40 C56,63 48,83 48,100 C48,118 57,131 73,138"
            fill="none" stroke="#ffffff" stroke-width="8" opacity="0.35" stroke-linecap="round"/>
    </g>
  </g>

  <!-- Text -->
  <text x="420" y="135" class="txt ink">HYFI</text>
</svg>
